<svg id="visual" viewBox="0 0 960 540" width="960" height="540" xmlns="http://www.w3.org/2000/svg" xmlns:xlink="http://www.w3.org/1999/xlink" version="1.1"><rect x="0" y="0" width="960" height="540" fill="#33322f"></rect><g transform="translate(479.5596532078766 329.55491794452956)"><path d="M24.9 -60.2C41.3 -22.5 69.6 -27.2 97.4 -14.5C125.2 -1.8 152.5 28.3 145.3 46.2C138.1 64 96.4 69.6 66.4 82.4C36.4 95.2 18.2 115.1 3.4 110.4C-11.4 105.6 -22.7 76.3 -57.6 65.1C-92.5 53.9 -150.9 61 -145.2 53.1C-139.5 45.3 -69.8 22.7 -61.3 -25.1C-52.9 -72.8 -105.8 -145.6 -105.8 -188.6C-105.8 -231.6 -52.9 -244.8 -24.3 -211.4C4.3 -177.9 8.6 -97.9 24.9 -60.2" fill="none" stroke="#33322f" stroke-width="6"></path></g></svg>